<svg width="18" height="17" viewBox="0 0 18 17" fill="none" xmlns="http://www.w3.org/2000/svg">
<path d="M11.3075 0.419922C12.906 0.419922 14.2622 0.97752 15.376 2.09272C16.4898 3.20791 17.0465 4.56552 17.0459 6.16553H15.4064C15.4064 5.61833 15.3072 5.10889 15.1088 4.6372C14.9104 4.16551 14.6407 3.74472 14.2997 3.37481L13.1725 5.28317C13.0358 5.50205 12.8891 5.74145 12.7322 6.00137C12.5754 6.26129 12.4079 6.48701 12.2297 6.67853C12.0384 6.88373 11.7993 6.98633 11.5124 6.98633C11.2255 6.98633 10.9796 6.89057 10.7746 6.69905C10.5697 6.50753 10.4672 6.26813 10.4672 5.98085C10.4672 5.69357 10.5697 5.44733 10.7746 5.24213C10.9659 5.05061 11.1949 4.87961 11.4616 4.72913C11.7283 4.57865 11.9707 4.43501 12.1887 4.29821L14.0947 3.16961C13.7258 2.82761 13.3058 2.55756 12.8347 2.35948C12.3636 2.16139 11.8545 2.06207 11.3075 2.06152V0.419922ZM8.90963 16.836C7.76194 16.836 6.68612 16.6171 5.68217 16.1793C4.67821 15.7416 3.80379 15.15 3.05888 14.4047C2.31398 13.6595 1.72292 12.7839 1.2857 11.7782C0.84849 10.7724 0.629883 9.69498 0.629883 8.54586C0.629883 6.54857 1.26521 4.78741 2.53586 3.26236C3.80652 1.73731 5.42558 0.78983 7.39304 0.419922C7.14711 1.77424 7.22225 3.09792 7.61848 4.39096C8.01471 5.684 8.69785 6.81588 9.66792 7.78662C10.638 8.75735 11.7687 9.44135 13.0602 9.83862C14.3516 10.2359 15.6733 10.3111 17.0254 10.0643C16.6702 12.0343 15.7274 13.6553 14.1972 14.9276C12.6669 16.1998 10.9044 16.836 8.90963 16.836Z" fill="#4AD991"/>
</svg>
