<svg width="20" height="19" viewBox="0 0 20 19" fill="none" xmlns="http://www.w3.org/2000/svg">
<path fill-rule="evenodd" clip-rule="evenodd" d="M11.2324 0.409237L19.3558 6.86596C19.7229 7.15779 20 7.73667 20 8.21199V9.08815C20 9.64977 19.5529 10.1069 19.0031 10.1069H17.6098C17.4502 10.1069 17.3204 10.2396 17.3204 10.4024V16.4478C17.3204 17.855 16.2 19 14.8229 19H12.1113V14.3759C12.1113 12.9998 11.5043 11.8809 10 11.8809C8.49567 11.8809 7.88867 12.9998 7.88867 14.3759V19H5.17689C3.8 19 2.67956 17.855 2.67956 16.4478V10.4024C2.67956 10.2396 2.54978 10.1069 2.39022 10.1069H0.996889C0.447111 10.1069 0 9.65 0 9.08815V8.21199C0 7.73667 0.277111 7.15779 0.644222 6.86596L8.76756 0.409237C9.09956 0.145572 9.53689 0 10 0C10.4627 0 10.9007 0.145572 11.2324 0.409237Z" fill="white"/>
</svg>
