<svg width="17" height="17" viewBox="0 0 17 17" fill="none" xmlns="http://www.w3.org/2000/svg">
<path d="M16.4835 8.2832L9.0963 0.895987C8.79261 0.59229 8.374 0.419922 7.93897 0.419922H2.19336C1.75798 0.419922 1.34043 0.592876 1.03257 0.900736C0.724712 1.2086 0.551758 1.62614 0.551758 2.06152V7.80714C0.551758 8.24216 0.724126 8.66077 1.03603 8.96447L1.37256 9.29279C2.11128 8.84955 2.96491 8.62794 3.83496 8.62794C5.1411 8.62794 6.39375 9.1468 7.31733 10.0704C8.24091 10.994 8.75977 12.2466 8.75977 13.5527C8.75977 14.4228 8.52995 15.2682 8.08672 16.0152L8.41504 16.3435C8.71873 16.6554 9.14555 16.836 9.58057 16.836C10.0156 16.836 10.4342 16.6636 10.7379 16.3517L16.4835 10.6061C16.7954 10.3024 16.9678 9.88376 16.9678 9.44874C16.9678 9.01371 16.7954 8.59511 16.4835 8.2832ZM3.42456 4.52393C3.09803 4.52393 2.78487 4.39421 2.55397 4.16332C2.32308 3.93242 2.19336 3.61926 2.19336 3.29273C2.19336 2.96619 2.32308 2.65303 2.55397 2.42214C2.78487 2.19124 3.09803 2.06152 3.42456 2.06152C3.7511 2.06152 4.06426 2.19124 4.29516 2.42214C4.52605 2.65303 4.65577 2.96619 4.65577 3.29273C4.65577 3.61926 4.52605 3.93242 4.29516 4.16332C4.06426 4.39421 3.7511 4.52393 3.42456 4.52393ZM7.11817 14.3735H0.551758V12.7319H7.11817V14.3735Z" fill="#FF9066"/>
</svg>
