<svg width="17" height="20" viewBox="0 0 17 20" fill="none" xmlns="http://www.w3.org/2000/svg">
<path fill-rule="evenodd" clip-rule="evenodd" d="M2.80804 0.673828C2.18607 0.673828 1.58957 0.919501 1.14977 1.3568C0.709968 1.7941 0.462891 2.38721 0.462891 3.00565V19.3284L4.5669 16.9966L8.67091 19.3284L12.7749 16.9966L16.8789 19.3284V3.00565C16.8789 2.38721 16.6318 1.7941 16.192 1.3568C15.7522 0.919501 15.1557 0.673828 14.5338 0.673828H2.80804ZM5.73947 4.17156C5.27299 4.17156 4.82562 4.35582 4.49577 4.68379C4.16592 5.01177 3.98061 5.4566 3.98061 5.92043C3.98061 6.38426 4.16592 6.82909 4.49577 7.15706C4.82562 7.48504 5.27299 7.6693 5.73947 7.6693C6.20595 7.6693 6.65332 7.48504 6.98317 7.15706C7.31302 6.82909 7.49833 6.38426 7.49833 5.92043C7.49833 5.4566 7.31302 5.01177 6.98317 4.68379C6.65332 4.35582 6.20595 4.17156 5.73947 4.17156ZM13.0176 4.51317C12.7977 4.2946 12.4996 4.17181 12.1886 4.17181C11.8777 4.17181 11.5795 4.2946 11.3596 4.51317L4.32418 11.5086C4.21218 11.6162 4.12285 11.7448 4.0614 11.8871C3.99995 12.0293 3.9676 12.1823 3.96625 12.3371C3.96489 12.4919 3.99456 12.6455 4.05352 12.7888C4.11248 12.932 4.19955 13.0622 4.30964 13.1717C4.41974 13.2812 4.55066 13.3677 4.69476 13.4264C4.83887 13.485 4.99327 13.5145 5.14897 13.5131C5.30466 13.5118 5.45852 13.4796 5.60158 13.4185C5.74464 13.3574 5.87403 13.2686 5.98219 13.1572L13.0176 6.16177C13.2375 5.94313 13.361 5.64663 13.361 5.33747C13.361 5.02832 13.2375 4.73181 13.0176 4.51317ZM11.6023 10.0011C11.1359 10.0011 10.6885 10.1854 10.3586 10.5133C10.0288 10.8413 9.84348 11.2862 9.84348 11.75C9.84348 12.2138 10.0288 12.6586 10.3586 12.9866C10.6885 13.3146 11.1359 13.4989 11.6023 13.4989C12.0688 13.4989 12.5162 13.3146 12.846 12.9866C13.1759 12.6586 13.3612 12.2138 13.3612 11.75C13.3612 11.2862 13.1759 10.8413 12.846 10.5133C12.5162 10.1854 12.0688 10.0011 11.6023 10.0011Z" fill="#FEC53D"/>
</svg>
