<svg width="19" height="20" viewBox="0 0 19 20" fill="none" xmlns="http://www.w3.org/2000/svg">
<path d="M1.93322 5.99796C2.68806 5.2392 3.776 5.02704 5.58653 4.9677L6.92966 4.94613C7.28067 4.94433 7.65316 4.94373 8.04715 4.94433H11.6288C12.024 4.94433 12.3965 4.94493 12.7463 4.94613L14.0894 4.9677C15.9 5.02704 16.9879 5.2392 17.7428 5.99796C18.7922 7.0507 18.7922 8.74622 18.7922 12.1364C18.7922 15.5265 18.7922 17.222 17.7428 18.2748C16.6933 19.3275 15.0055 19.3284 11.6288 19.3284H8.04715C4.67052 19.3284 2.98176 19.3284 1.93322 18.2748C0.884684 17.2211 0.883789 15.5265 0.883789 12.1364C0.883789 8.74622 0.883789 7.0507 1.93322 5.99796Z" fill="#8280FF"/>
<path d="M9.88451 0.673828H9.79138C8.9873 0.673828 8.31573 0.673828 7.78385 0.745749C7.22153 0.821265 6.71383 0.98848 6.30641 1.39753C5.8981 1.80747 5.73155 2.31721 5.65633 2.88089C5.6053 3.26476 5.59097 4.18085 5.58649 4.96658L6.92966 4.94613C6.93414 4.18467 6.94753 3.36545 6.98782 3.06069C7.04334 2.64625 7.13915 2.46824 7.25645 2.35137C7.37375 2.2345 7.54925 2.13831 7.96294 2.08167C8.39542 2.02413 8.97476 2.02234 9.83795 2.02234C10.7011 2.02234 11.2814 2.02413 11.7139 2.08257C12.1266 2.13831 12.3039 2.2345 12.4203 2.35227C12.5367 2.47004 12.6334 2.64625 12.689 3.06069C12.7293 3.36635 12.7427 4.18467 12.7463 4.94613L14.0894 4.9677C14.0859 4.18107 14.0715 3.26476 14.0196 2.88178C13.9443 2.31721 13.7778 1.80747 13.3704 1.39843C12.9621 0.98848 12.4544 0.821265 11.8929 0.745749C11.3602 0.673828 10.6895 0.673828 9.88451 0.673828Z" fill="#B1B1FF"/>
<path d="M10.343 7.83611C10.4756 7.96921 10.55 8.14974 10.55 8.33797V8.34743C11.5765 8.60673 12.4351 9.41961 12.4351 10.5457C12.4351 10.734 12.3607 10.9145 12.2281 11.0476C12.0955 11.1807 11.9157 11.2555 11.7282 11.2555C11.5407 11.2555 11.3609 11.1807 11.2284 11.0476C11.0958 10.9145 11.0213 10.734 11.0213 10.5457C11.0213 10.1824 10.6198 9.67891 9.84313 9.67891C9.06647 9.67891 8.66494 10.1824 8.66494 10.5457C8.66494 10.9091 9.06647 11.4135 9.84313 11.4135C11.1486 11.4135 12.4351 12.322 12.4351 13.7008C12.4351 14.8269 11.5765 15.6398 10.55 15.8991V15.9085C10.55 16.0968 10.4756 16.2773 10.343 16.4104C10.2104 16.5435 10.0306 16.6183 9.84313 16.6183C9.65564 16.6183 9.47584 16.5435 9.34327 16.4104C9.21069 16.2773 9.13622 16.0968 9.13622 15.9085V15.8991C8.10978 15.6388 7.25112 14.8269 7.25112 13.7008C7.25112 13.5125 7.3256 13.332 7.45817 13.1989C7.59074 13.0658 7.77055 12.991 7.95803 12.991C8.14552 12.991 8.32532 13.0658 8.45789 13.1989C8.59046 13.332 8.66494 13.5125 8.66494 13.7008C8.66494 14.0642 9.06647 14.5676 9.84313 14.5676C10.6198 14.5676 11.0213 14.0642 11.0213 13.7008C11.0213 13.3374 10.6198 12.833 9.84313 12.833C8.5377 12.833 7.25112 11.9245 7.25112 10.5457C7.25112 9.41961 8.10978 8.60673 9.13622 8.34743V8.33797C9.13622 8.14974 9.21069 7.96921 9.34327 7.83611C9.47584 7.70301 9.65564 7.62823 9.84313 7.62823C10.0306 7.62823 10.2104 7.70301 10.343 7.83611Z" fill="#E5E4FF"/>
</svg>
